<?xml version="1.0" standalone="no"?>
<!DOCTYPE svg PUBLIC "-//W3C//DTD SVG 20010904//EN"
 "http://www.w3.org/TR/2001/REC-SVG-20010904/DTD/svg10.dtd">
<svg version="1.0" xmlns="http://www.w3.org/2000/svg"
 width="281.000000pt" height="281.000000pt" viewBox="0 0 281.000000 281.000000"
 preserveAspectRatio="xMidYMid meet">
<metadata>
Created by potrace 1.11, written by Peter Selinger 2001-2013
</metadata>
<g transform="translate(0.000000,281.000000) scale(0.100000,-0.100000)"
fill="#000000" stroke="none">
<path d="M260 1405 l0 -1405 461 0 461 0 62 63 c38 40 80 98 111 156 28 51 58
102 67 114 l17 22 1 -26 c1 -66 -57 -235 -102 -301 l-19 -28 615 0 616 0 0
1405 0 1405 -666 0 c-622 0 -666 -1 -653 -17 12 -14 45 -46 123 -118 34 -32
187 -142 291 -210 124 -80 236 -179 286 -251 15 -23 36 -69 45 -103 15 -53 16
-70 5 -128 -19 -101 -53 -172 -165 -337 -119 -175 -149 -242 -149 -336 0 -42
-2 -58 -8 -45 -13 34 -10 119 7 176 20 67 60 146 132 263 91 147 122 227 122
316 0 141 -71 234 -307 403 -137 98 -344 283 -387 346 l-29 41 -468 0 -469 0
0 -1405z m930 1030 c8 0 33 -6 54 -14 25 -8 61 -12 97 -8 35 3 57 1 53 -4 -14
-23 -71 -41 -136 -42 l-70 -2 7 -45 c10 -69 80 -238 129 -309 97 -143 181
-221 237 -221 27 0 91 33 169 88 36 25 59 38 51 29 -7 -9 -41 -37 -75 -61
-144 -102 -170 -102 -279 3 -120 114 -216 295 -247 463 -8 41 -17 59 -42 81
l-32 27 27 0 c26 0 27 2 29 63 l1 62 6 -55 c4 -40 10 -55 21 -55z m325 -345
c8 -13 -5 -13 -25 0 -13 8 -13 10 2 10 9 0 20 -4 23 -10z m95 0 c-8 -5 -19
-10 -25 -10 -5 0 -3 5 5 10 8 5 20 10 25 10 6 0 3 -5 -5 -10z m-206 -377 c-17
-175 -103 -277 -259 -311 -82 -18 -114 -22 -257 -31 -231 -15 -258 -44 -344
-361 -31 -117 -33 -121 -28 -60 4 36 17 109 30 163 64 258 93 282 372 302 263
20 316 36 390 121 44 49 76 121 87 197 11 70 17 57 9 -20z m608 -161 c-14 -94
-61 -190 -147 -305 -34 -45 -85 -113 -114 -152 -97 -129 -138 -252 -121 -360
14 -81 10 -94 -12 -45 -26 55 -35 172 -19 236 22 85 74 174 183 311 156 196
216 308 219 407 0 30 1 30 11 8 9 -17 8 -43 0 -100z m48 -440 c0 -106 -59
-230 -181 -382 -111 -139 -144 -186 -177 -258 -24 -51 -27 -69 -27 -167 0 -60
3 -126 8 -145 l7 -35 -26 39 c-30 44 -54 114 -54 159 0 48 30 156 61 222 15
33 80 129 143 213 115 151 177 257 210 360 21 62 36 59 36 -6z m-715 -262 c39
-5 88 -17 111 -27 l40 -18 -149 3 c-117 3 -173 0 -265 -17 -327 -58 -468 -64
-597 -26 -79 23 -96 39 -30 28 100 -16 339 2 495 39 106 24 284 33 395 18z"/>
</g>
</svg>
