<?xml version="1.0" encoding="UTF-8" standalone="no"?>
<!-- Generator: Adobe Illustrator 19.0.0, SVG Export Plug-In . SVG Version: 6.00 Build 0)  -->

<svg
   xmlns:dc="http://purl.org/dc/elements/1.1/"
   xmlns:cc="http://creativecommons.org/ns#"
   xmlns:rdf="http://www.w3.org/1999/02/22-rdf-syntax-ns#"
   xmlns:svg="http://www.w3.org/2000/svg"
   xmlns="http://www.w3.org/2000/svg"
   xmlns:sodipodi="http://sodipodi.sourceforge.net/DTD/sodipodi-0.dtd"
   xmlns:inkscape="http://www.inkscape.org/namespaces/inkscape"
   version="1.1"
   id="Capa_1"
   x="0px"
   y="0px"
   viewBox="0 0 410.90805 286.28403"
   xml:space="preserve"
   sodipodi:docname="coinEqualMoney.svg"
   width="410.90805"
   height="286.28403"
   inkscape:version="0.92.3 (2405546, 2018-03-11)"><metadata
   id="metadata121"><rdf:RDF><cc:Work
       rdf:about=""><dc:format>image/svg+xml</dc:format><dc:type
         rdf:resource="http://purl.org/dc/dcmitype/StillImage" /><dc:title></dc:title></cc:Work></rdf:RDF></metadata><defs
   id="defs119" /><sodipodi:namedview
   pagecolor="#ffffff"
   bordercolor="#666666"
   borderopacity="1"
   objecttolerance="10"
   gridtolerance="10"
   guidetolerance="10"
   inkscape:pageopacity="0"
   inkscape:pageshadow="2"
   inkscape:window-width="1440"
   inkscape:window-height="858"
   id="namedview117"
   showgrid="false"
   inkscape:zoom="1.13"
   inkscape:cx="204.46456"
   inkscape:cy="179.7816"
   inkscape:window-x="-11"
   inkscape:window-y="-11"
   inkscape:window-maximized="1"
   inkscape:current-layer="Capa_1" />































<g
   id="g1077"
   transform="matrix(0.50401902,0,0,0.46764591,-111.43357,-108.83383)"><circle
     id="circle20"
     r="81.455002"
     cy="337.45499"
     cx="302.54501"
     style="fill:#ffca5d" /><circle
     id="circle22"
     r="81.455002"
     cy="314.18201"
     cx="407.27301"
     style="fill:#f6b545" /><path
     id="path24"
     d="m 407.273,232.727 c -45.382,0 -81.455,36.073 -81.455,81.455 0,45.382 36.073,81.455 81.455,81.455 45.382,0 81.455,-36.073 81.455,-81.455 0,-45.382 -36.073,-81.455 -81.455,-81.455 z m 0,139.637 c -32.582,0 -58.182,-25.6 -58.182,-58.182 0,-32.582 25.6,-58.182 58.182,-58.182 32.582,0 58.182,25.6 58.182,58.182 0,32.582 -25.6,58.182 -58.182,58.182 z"
     style="fill:#ffcb5b"
     inkscape:connector-curvature="0" /><path
     id="path26"
     d="m 407.273,394.473 v 0 c 45.382,1.164 81.455,-36.073 81.455,-80.291 h -1.164 c -5.818,0 -10.473,4.655 -11.636,10.473 -2.327,16.291 -10.473,31.418 -22.109,41.891 -9.309,9.309 -22.109,15.127 -36.073,17.454 -5.819,0 -10.473,4.655 -10.473,10.473 z"
     style="fill:#f6b545"
     inkscape:connector-curvature="0" /><path
     id="path28"
     d="m 407.273,233.891 v 0 c -45.382,-1.164 -81.455,36.073 -81.455,80.291 h 1.164 c 5.818,0 10.473,-4.655 11.636,-10.473 2.327,-16.291 10.473,-31.418 22.109,-41.891 9.309,-9.309 22.109,-15.127 36.073,-17.455 5.818,0.001 10.473,-4.654 10.473,-10.472 z"
     style="fill:#ffe27a"
     inkscape:connector-curvature="0" /><path
     id="path30"
     d="m 357.236,322.327 c 0,-32.582 25.6,-58.182 58.182,-58.182 13.964,0 26.764,4.655 37.236,13.964 C 441.018,264.145 425.891,256 407.273,256 c -32.582,0 -58.182,25.6 -58.182,58.182 0,18.618 8.145,33.745 20.945,44.218 -8.145,-9.309 -12.8,-22.109 -12.8,-36.073 z"
     style="fill:#f19920"
     inkscape:connector-curvature="0" /><path
     id="path32"
     d="m 442.182,350.255 c -1.164,0 -2.327,0 -3.491,-1.164 -2.327,-2.327 -2.327,-5.818 0,-8.145 6.982,-6.982 10.473,-17.455 10.473,-26.764 0,-3.491 2.327,-5.818 5.818,-5.818 3.491,0 5.818,2.327 5.818,5.818 0,12.8 -4.655,25.6 -12.8,34.909 -2.327,1.164 -4.655,1.164 -5.818,1.164 z"
     style="fill:#ffcb5b"
     inkscape:connector-curvature="0" /><g
     id="g38">
	<path
   id="path34"
   d="m 407.273,349.091 c -6.982,0 -11.636,-4.655 -11.636,-11.636 V 290.91 c 0,-6.982 4.655,-11.636 11.636,-11.636 6.981,0 11.636,4.655 11.636,11.636 v 46.545 c 0,6.981 -4.654,11.636 -11.636,11.636 z"
   style="fill:#f19920"
   inkscape:connector-curvature="0" />
	<path
   id="path36"
   d="M 450.327,382.836 C 442.182,353.745 421.236,330.472 394.472,320 c -4.655,-26.764 -22.109,-50.036 -44.218,-64 -13.964,15.127 -23.273,34.909 -23.273,57.018 0,45.382 36.073,81.455 81.455,81.455 15.128,1.163 29.091,-3.491 41.891,-11.637 z"
   style="fill:#f19920"
   inkscape:connector-curvature="0" />
</g><g
     id="g44">
	<path
   id="path40"
   d="m 370.036,358.4 c -8.145,-10.473 -13.964,-23.273 -13.964,-37.236 0,-16.291 6.982,-31.418 18.618,-41.891 -2.327,-3.491 -4.655,-5.818 -6.982,-8.145 -11.636,10.473 -18.618,25.6 -18.618,43.055 0.001,18.617 8.146,33.744 20.946,44.217 z"
   style="fill:#e78825"
   inkscape:connector-curvature="0" />
	<path
   id="path42"
   d="m 395.636,321.164 v 16.291 c 0,6.982 4.655,11.636 11.636,11.636 6.981,0 11.636,-4.655 11.636,-11.636 v -2.327 c -6.981,-5.819 -15.126,-10.473 -23.272,-13.964 z"
   style="fill:#e78825"
   inkscape:connector-curvature="0" />
</g><path
     id="path46"
     d="m 450.327,382.836 c -2.327,-8.145 -4.655,-15.127 -9.309,-22.109 -9.309,6.982 -20.945,11.636 -33.745,11.636 -32.582,0 -58.182,-25.6 -58.182,-58.182 0,-17.455 6.982,-32.582 18.618,-43.055 -5.818,-5.818 -11.636,-10.473 -18.618,-13.964 -13.964,15.127 -23.273,34.909 -23.273,57.018 0,45.382 36.073,81.455 81.455,81.455 16.291,0.001 30.254,-4.653 43.054,-12.799 z"
     style="fill:#f6b545"
     inkscape:connector-curvature="0" /><path
     id="path48"
     d="m 446.836,372.364 c -8.145,5.818 -18.618,9.309 -29.091,11.636 -5.818,1.164 -10.473,5.818 -10.473,11.636 v 0 c 16.291,0 30.255,-4.655 43.055,-12.8 -1.163,-3.491 -2.327,-6.981 -3.491,-10.472 z"
     style="fill:#f19920"
     inkscape:connector-curvature="0" /><path
     id="path50"
     d="m 349.091,257.164 c -13.964,15.127 -23.273,34.909 -23.273,57.018 h 1.164 c 5.818,0 10.473,-4.655 11.636,-10.473 2.327,-16.291 10.473,-30.255 20.945,-40.727 -3.49,-1.164 -6.981,-3.491 -10.472,-5.818 z"
     style="fill:#ffcb5b"
     inkscape:connector-curvature="0" /><circle
     id="circle52"
     r="81.455002"
     cy="337.45499"
     cx="302.54501"
     style="fill:#f6b545" /><path
     id="path54"
     d="m 290.909,395.636 c 0,8.145 1.164,15.127 3.491,23.273 2.327,0 5.818,0 8.145,0 45.382,0 81.455,-36.073 81.455,-81.455 0,-8.145 -1.164,-15.127 -3.491,-23.273 -2.327,0 -5.818,0 -8.145,0 -45.382,0.001 -81.455,36.074 -81.455,81.455 z"
     style="fill:#f19920"
     inkscape:connector-curvature="0" /><path
     id="path56"
     d="m 302.545,256 c -45.382,0 -81.455,36.073 -81.455,81.455 0,45.382 36.073,81.455 81.455,81.455 C 347.927,418.91 384,382.836 384,337.455 384,292.074 347.927,256 302.545,256 Z m 0,139.636 c -32.582,0 -58.182,-25.6 -58.182,-58.182 0,-32.582 25.6,-58.182 58.182,-58.182 32.582,0 58.182,25.6 58.182,58.182 0,32.582 -25.6,58.182 -58.182,58.182 z"
     style="fill:#ffcb5b"
     inkscape:connector-curvature="0" /><path
     id="path58"
     d="m 302.545,417.745 v 0 C 347.927,418.909 384,381.673 384,337.455 h -1.164 c -5.818,0 -10.473,4.655 -11.636,10.473 -2.327,16.291 -10.473,31.418 -22.109,41.891 -9.309,9.309 -22.109,15.127 -36.073,17.455 -5.818,-10e-4 -10.473,4.653 -10.473,10.471 z"
     style="fill:#f6b545"
     inkscape:connector-curvature="0" /><path
     id="path60"
     d="m 302.545,257.164 v 0 C 257.163,256 221.09,293.237 221.09,337.455 h 1.164 c 5.818,0 10.473,-4.655 11.636,-10.473 2.327,-16.291 10.473,-31.418 22.109,-41.891 9.309,-9.309 22.109,-15.127 36.073,-17.455 5.819,0 10.473,-4.654 10.473,-10.472 z"
     style="fill:#ffe27a"
     inkscape:connector-curvature="0" /><path
     id="path62"
     d="m 252.509,345.6 c 0,-32.582 25.6,-58.182 58.182,-58.182 13.964,0 26.764,4.655 37.236,13.964 -11.636,-13.964 -26.764,-22.109 -45.382,-22.109 -32.582,0 -58.182,25.6 -58.182,58.182 0,18.618 8.145,33.745 20.945,44.218 -8.144,-9.309 -12.799,-22.109 -12.799,-36.073 z"
     style="fill:#f19920"
     inkscape:connector-curvature="0" /><path
     id="path64"
     d="m 337.455,373.527 c -1.164,0 -2.327,0 -3.491,-1.164 -2.327,-2.327 -2.327,-5.818 0,-8.145 6.982,-6.982 10.473,-17.455 10.473,-26.764 0,-3.491 2.327,-5.818 5.818,-5.818 3.491,0 5.818,2.327 5.818,5.818 0,12.8 -4.655,25.6 -12.8,34.909 -2.328,1.164 -4.655,1.164 -5.818,1.164 z"
     style="fill:#ffcb5b"
     inkscape:connector-curvature="0" /><path
     id="path66"
     d="m 302.545,372.364 c -6.982,0 -11.636,-4.655 -11.636,-11.636 v -46.545 c 0,-6.982 4.655,-11.636 11.636,-11.636 6.982,0 11.636,4.655 11.636,11.636 v 46.545 c 0.001,6.981 -4.654,11.636 -11.636,11.636 z"
     style="fill:#f19920"
     inkscape:connector-curvature="0" /><g
     id="g72">
	<path
   id="path68"
   d="m 356.073,315.345 c 2.327,6.982 4.655,13.964 4.655,22.109 0,32.582 -25.6,58.182 -58.182,58.182 -3.491,0 -8.145,0 -11.636,-1.164 v 1.164 c 0,8.145 1.164,15.127 3.491,23.273 2.327,0 5.818,0 8.145,0 45.382,0 81.455,-36.073 81.455,-81.455 0,-8.145 -1.164,-15.127 -3.491,-23.273 -2.327,0 -5.818,0 -8.145,0 -5.82,0.001 -10.474,0.001 -16.292,1.164 z"
   style="fill:#f6b545"
   inkscape:connector-curvature="0" />
	<circle
   id="circle70"
   r="81.455002"
   cy="407.27301"
   cx="360.72699"
   style="fill:#f6b545" />
</g><path
     id="path74"
     d="m 360.727,325.818 c -45.382,0 -81.455,36.073 -81.455,81.455 0,45.382 36.073,81.455 81.455,81.455 45.382,0 81.455,-36.073 81.455,-81.455 0,-45.382 -36.073,-81.455 -81.455,-81.455 z m 0,139.637 c -32.582,0 -58.182,-25.6 -58.182,-58.182 0,-32.582 25.6,-58.182 58.182,-58.182 32.582,0 58.182,25.6 58.182,58.182 0,32.582 -25.6,58.182 -58.182,58.182 z"
     style="fill:#ffcb5b"
     inkscape:connector-curvature="0" /><path
     id="path76"
     d="m 360.727,487.564 v 0 c 45.382,1.164 81.455,-36.073 81.455,-80.291 h -1.164 c -5.818,0 -10.473,4.655 -11.636,10.473 -2.327,16.291 -10.473,31.418 -22.109,41.891 -9.309,9.309 -22.109,15.127 -36.073,17.455 -5.818,-10e-4 -10.473,4.653 -10.473,10.472 z"
     style="fill:#f6b545"
     inkscape:connector-curvature="0" /><path
     id="path78"
     d="m 360.727,326.982 v 0 c -45.382,-1.164 -81.455,36.073 -81.455,80.291 h 1.164 c 5.818,0 10.473,-4.655 11.636,-10.473 2.327,-16.291 10.473,-31.418 22.109,-41.891 9.309,-9.309 22.109,-15.127 36.073,-17.455 5.819,10e-4 10.473,-4.654 10.473,-10.472 z"
     style="fill:#ffe27a"
     inkscape:connector-curvature="0" /><path
     id="path80"
     d="m 310.691,415.418 c 0,-32.582 25.6,-58.182 58.182,-58.182 13.964,0 26.764,4.655 37.236,13.964 -11.636,-13.964 -26.764,-22.109 -45.382,-22.109 -32.582,0 -58.182,25.6 -58.182,58.182 0,18.618 8.145,33.745 20.945,44.218 -8.145,-9.309 -12.799,-22.109 -12.799,-36.073 z"
     style="fill:#f19920"
     inkscape:connector-curvature="0" /><path
     id="path82"
     d="m 395.636,443.345 c -1.164,0 -2.327,0 -3.491,-1.164 -2.327,-2.327 -2.327,-5.818 0,-8.145 6.982,-6.982 10.473,-17.455 10.473,-26.764 0,-3.491 2.327,-5.818 5.818,-5.818 3.491,0 5.818,2.327 5.818,5.818 0,12.8 -4.655,25.6 -12.8,34.909 -2.327,1.164 -4.654,1.164 -5.818,1.164 z"
     style="fill:#ffcb5b"
     inkscape:connector-curvature="0" /><path
     id="path84"
     d="m 360.727,442.182 c -6.982,0 -11.636,-4.655 -11.636,-11.636 V 384 c 0,-6.982 4.655,-11.636 11.636,-11.636 6.982,0 11.636,4.655 11.636,11.636 v 46.545 c 10e-4,6.982 -4.654,11.637 -11.636,11.637 z"
     style="fill:#f19920"
     inkscape:connector-curvature="0" /></g>
<g
   id="g86"
   transform="translate(-51.535442,-8.5605397)">
</g>
<g
   id="g88"
   transform="translate(-51.535442,-8.5605397)">
</g>
<g
   id="g90"
   transform="translate(-51.535442,-8.5605397)">
</g>
<g
   id="g92"
   transform="translate(-51.535442,-8.5605397)">
</g>
<g
   id="g94"
   transform="translate(-51.535442,-8.5605397)">
</g>
<g
   id="g96"
   transform="translate(-51.535442,-8.5605397)">
</g>
<g
   id="g98"
   transform="translate(-51.535442,-8.5605397)">
</g>
<g
   id="g100"
   transform="translate(-51.535442,-8.5605397)">
</g>
<g
   id="g102"
   transform="translate(-51.535442,-8.5605397)">
</g>
<g
   id="g104"
   transform="translate(-51.535442,-8.5605397)">
</g>
<g
   id="g106"
   transform="translate(-51.535442,-8.5605397)">
</g>
<g
   id="g108"
   transform="translate(-51.535442,-8.5605397)">
</g>
<g
   id="g110"
   transform="translate(-51.535442,-8.5605397)">
</g>
<g
   id="g112"
   transform="translate(-51.535442,-8.5605397)">
</g>
<g
   id="g114"
   transform="translate(-51.535442,-8.5605397)">
</g>
<g
   id="g1091"
   transform="matrix(0.37430985,0,0,0.37111882,219.26102,165.36683)"><path
     id="path2"
     d="M 488.727,325.818 H 23.273 C 10.473,325.818 0,315.345 0,302.545 v -256 C 0,33.745 10.473,23.272 23.273,23.272 h 465.455 c 12.8,0 23.273,10.473 23.273,23.273 v 256 c -10e-4,12.8 -10.474,23.273 -23.274,23.273 z"
     style="fill:#0e9347"
     inkscape:connector-curvature="0" /><path
     id="path4"
     d="m 430.545,232.727 c -26.764,0 -51.2,12.8 -65.164,33.745 C 353.745,260.655 340.945,256 325.818,256 c -40.727,0 -74.473,30.255 -80.291,69.818 h 243.2 c 11.636,0 20.945,-8.145 23.273,-19.782 -4.655,-40.727 -39.564,-73.309 -81.455,-73.309 z"
     style="fill:#0d8944"
     inkscape:connector-curvature="0" /><path
     id="path6"
     d="M 442.182,302.545 H 69.818 C 69.818,276.945 48.873,256 23.273,256 V 93.091 c 25.6,0 46.545,-20.945 46.545,-46.545 h 372.364 c 0,25.6 20.945,46.545 46.545,46.545 V 256 c -25.6,0 -46.545,20.945 -46.545,46.545 z"
     style="fill:#3bb54a"
     inkscape:connector-curvature="0" /><g
     id="g16">
	<path
   id="path8"
   d="m 430.545,232.727 c -26.764,0 -51.2,12.8 -65.164,33.745 C 353.745,260.655 340.945,256 325.818,256 c -32.582,0 -60.509,18.618 -73.309,46.545 h 189.673 c 0,-25.6 19.782,-45.382 45.382,-46.545 -15.128,-13.964 -34.909,-23.273 -57.019,-23.273 z"
   style="fill:#0e9347"
   inkscape:connector-curvature="0" />
	<ellipse
   id="ellipse10"
   ry="104.727"
   rx="106.36534"
   cy="170.12022"
   cx="256"
   style="fill:#0e9347;stroke-width:1.06892252" />
	<circle
   id="circle12"
   r="23.273001"
   cy="174.545"
   cx="116.364"
   style="fill:#0e9347" />
	<circle
   id="circle14"
   r="23.273001"
   cy="174.545"
   cx="395.63599"
   style="fill:#0e9347" />
</g><path
     inkscape:connector-curvature="0"
     id="path18"
     d="m 315.9767,152.06838 h -23.49424 c -7.04837,0 -11.74662,-4.21248 -11.74662,-10.52983 0,-6.31825 4.69926,-10.52982 11.74662,-10.52982 h 35.24086 c 7.04838,0 11.74662,-4.21247 11.74662,-10.52982 0,-6.31825 -4.69925,-10.52982 -11.74662,-10.52982 H 315.9767 c 0,-6.31825 -4.69925,-10.52982 -11.74661,-10.52982 -7.04838,0 -11.74662,4.21247 -11.74662,10.52982 -19.97006,0 -35.24086,13.68895 -35.24086,31.59037 0,17.90142 15.2708,31.59037 35.24086,31.59037 h 23.49424 c 7.04838,0 11.74662,4.21247 11.74662,10.52982 0,6.31825 -4.69925,10.52982 -11.74662,10.52982 h -35.24086 c -7.04837,0 -11.74661,4.21247 -11.74661,10.52982 0,6.31826 4.69925,10.52982 11.74661,10.52982 h 11.74662 c 0,6.31826 4.69925,10.52982 11.74662,10.52982 7.04837,0 11.74661,-4.21247 11.74661,-10.52982 19.97006,0 35.24087,-13.68895 35.24087,-31.59037 0,-17.90142 -15.27081,-31.59036 -35.24087,-31.59036 z"
     style="fill:#89c763;fill-opacity:1;stroke-width:0.95579153" /><rect
     y="120.84956"
     x="369.02655"
     height="35.398232"
     width="30.973452"
     id="rect932"
     style="opacity:0;fill:#47fff1;fill-opacity:1;fill-rule:nonzero;stroke:#47ffff;stroke-width:1.64400005;stroke-miterlimit:4;stroke-dasharray:none;stroke-opacity:1" /><text
     id="text936"
     y="214.65488"
     x="157.52213"
     style="font-style:normal;font-weight:normal;font-size:40px;line-height:1.25;font-family:sans-serif;letter-spacing:0px;word-spacing:0px;fill:#89c763;fill-opacity:1;stroke:none"
     xml:space="preserve"><tspan
       style="font-style:normal;font-variant:normal;font-weight:bold;font-stretch:normal;font-size:200px;font-family:sans-serif;-inkscape-font-specification:'sans-serif Bold';fill:#89c763;fill-opacity:1"
       y="214.65488"
       x="157.52213"
       id="tspan934"
       sodipodi:role="line">r</tspan></text>
</g><g
   id="g1042"
   transform="matrix(0.74460155,0,0,0.7629156,64.660138,77.720011)"
   style="fill:#ffffff"><g
     id="g985"
     style="fill:#ffffff">
	<g
   id="g983"
   style="fill:#ffffff">
		<path
   id="path981"
   d="m 203.0572,16.710641 -0.023,-0.243653 h -7.18085 c -4.93555,0 -9.44149,4.239327 -9.44149,8.871139 V 70.686441 L 109.53383,-1.9726427 c -1.68269,-1.5807456 -4.09195,-2.4521361 -6.48813,-2.4521361 -2.39745,0 -4.388073,1.2674846 -6.266619,2.4521361 -2.09216,1.31936114 -1.176634,1.13354254 -5.331935,5.0327001 -3.490691,3.2755158 -6.022593,13.0976246 -2.530623,16.3743406 l 80.240057,67.848071 h -48.8863 c -4.933,0 -9.29828,4.34615 -9.29828,8.979162 v 7.118759 c 0,4.63301 4.36528,7.90733 9.29828,7.90733 h 83.13599 c 2.38978,0 4.44072,-0.63614 6.13108,-2.23249 1.70827,-1.59275 2.44732,-3.45916 2.44732,-5.70245 V 25.338127 c 0,-4.630612 -3.99319,-8.627486 -8.92747,-8.627486 z"
   inkscape:connector-curvature="0"
   style="fill:#ffffff;stroke-width:0.30970806"
   sodipodi:nodetypes="ccssccsssccssssscssc" />
	</g>
</g><g
     id="g987"
     style="fill:#ffffff">
</g><g
     id="g989"
     style="fill:#ffffff">
</g><g
     id="g991"
     style="fill:#ffffff">
</g><g
     id="g993"
     style="fill:#ffffff">
</g><g
     id="g995"
     style="fill:#ffffff">
</g><g
     id="g997"
     style="fill:#ffffff">
</g><g
     id="g999"
     style="fill:#ffffff">
</g><g
     id="g1001"
     style="fill:#ffffff">
</g><g
     id="g1003"
     style="fill:#ffffff">
</g><g
     id="g1005"
     style="fill:#ffffff">
</g><g
     id="g1007"
     style="fill:#ffffff">
</g><g
     id="g1009"
     style="fill:#ffffff">
</g><g
     id="g1011"
     style="fill:#ffffff">
</g><g
     id="g1013"
     style="fill:#ffffff">
</g><g
     id="g1015"
     style="fill:#ffffff">
</g></g></svg>