<?xml version="1.0"?>
<svg xmlns="http://www.w3.org/2000/svg" xmlns:xlink="http://www.w3.org/1999/xlink" version="1.1" id="Capa_1" x="0px" y="0px" viewBox="0 0 512 512" style="enable-background:new 0 0 512 512;" xml:space="preserve" width="512px" height="512px" class=""><g transform="matrix(1 0 0 1 0 0)"><circle style="fill:#C1EE92" cx="294.32" cy="44" r="34" data-original="#C1EE92" class=""/><path style="fill:#FF5D5D" d="M367.883,168c0-25.957-21.043-47-47-47s-47,21.043-47,47H367.883z" data-original="#FF5D5D"/><circle style="fill:#FED284" cx="170.37" cy="134" r="34" data-original="#FED284"/><path style="fill:#96EDE7" d="M433.797,168H86.598c-8.005,0-12.765,8.938-8.298,15.58l135.898,202.086V502l92-40.063v-76.271  L442.095,183.58C446.562,176.938,441.802,168,433.797,168z" data-original="#96EDE7" class=""/><path style="fill:#D9F9F7" d="M433.797,168H86.598c-8.005,0-12.765,8.938-8.298,15.58L100.101,216h320.192l21.802-32.42  C446.562,176.938,441.802,168,433.797,168z" data-original="#D9F9F7" class=""/><path d="M451.449,168.599C447.967,162.061,441.204,158,433.797,158h-56.81c-4.743-26.675-28.087-47-56.104-47  s-51.361,20.325-56.104,47h-57.555c4.514-6.908,7.15-15.15,7.15-24c0-24.262-19.738-44-44-44s-44,19.738-44,44  c0,8.85,2.636,17.092,7.15,24H86.598c-7.407,0-14.17,4.061-17.652,10.599c-3.481,6.537-3.077,14.416,1.056,20.562l134.196,199.556  V502c0,3.372,1.699,6.517,4.52,8.364c1.653,1.083,3.562,1.636,5.481,1.636c1.354,0,2.713-0.275,3.992-0.832l92-40.063  c3.648-1.589,6.007-5.189,6.007-9.168v-73.221L450.393,189.16C454.526,183.015,454.931,175.136,451.449,168.599z M320.883,131  c16.937,0,31.241,11.443,35.616,27h-71.231C289.642,142.443,303.947,131,320.883,131z M146.375,134c0-13.233,10.767-24,24-24  s24,10.767,24,24s-10.767,24-24,24S146.375,147.233,146.375,134z M297.899,380.086c-1.109,1.649-1.702,3.592-1.702,5.58v69.719  l-72,31.353v-91.072h36.127c5.523,0,10-4.477,10-10s-4.477-10-10-10h-40.801L118.88,226h202.003c5.523,0,10-4.477,10-10  s-4.477-10-10-10H105.431l-18.829-28h347.194L297.899,380.086z" data-original="#000000" class="active-path" style="fill:#000000" data-old_color="#000000"/><path d="M294.324,88c24.262,0,44-19.738,44-44s-19.738-44-44-44s-44,19.738-44,44S270.063,88,294.324,88z M294.324,20  c13.233,0,24,10.767,24,24s-10.767,24-24,24s-24-10.767-24-24S281.091,20,294.324,20z" data-original="#000000" class="active-path" style="fill:#000000" data-old_color="#000000"/><path d="M401.197,125.168c5.523,0,10-4.477,10-10V58.333c0-5.523-4.477-10-10-10s-10,4.477-10,10v56.834  C391.197,120.691,395.674,125.168,401.197,125.168z" data-original="#000000" class="active-path" style="fill:#000000" data-old_color="#000000"/><path d="M401.197,35.5c2.63,0,5.21-1.07,7.07-2.93s2.93-4.44,2.93-7.07s-1.07-5.21-2.93-7.07s-4.44-2.93-7.07-2.93  s-5.21,1.07-7.07,2.93c-1.86,1.86-2.93,4.44-2.93,7.07s1.07,5.21,2.93,7.07C395.987,34.43,398.567,35.5,401.197,35.5z" data-original="#000000" class="active-path" style="fill:#000000" data-old_color="#000000"/><path d="M204.375,73.755c5.523,0,10-4.477,10-10v-41c0-5.523-4.477-10-10-10s-10,4.477-10,10v41  C194.375,69.278,198.852,73.755,204.375,73.755z" data-original="#000000" class="active-path" style="fill:#000000" data-old_color="#000000"/><path d="M68.197,85.168c5.523,0,10-4.477,10-10V10c0-5.523-4.477-10-10-10s-10,4.477-10,10v65.168  C58.197,80.691,62.674,85.168,68.197,85.168z" data-original="#000000" class="active-path" style="fill:#000000" data-old_color="#000000"/><path d="M75.267,119.74c1.86-1.86,2.93-4.44,2.93-7.07c0-2.64-1.07-5.21-2.93-7.07c-1.86-1.87-4.44-2.93-7.07-2.93  s-5.21,1.06-7.07,2.93c-1.86,1.86-2.93,4.43-2.93,7.07c0,2.63,1.07,5.21,2.93,7.07s4.44,2.93,7.07,2.93  C70.827,122.67,73.407,121.6,75.267,119.74z" data-original="#000000" class="active-path" style="fill:#000000" data-old_color="#000000"/><path d="M358.277,208.93c-1.87,1.86-2.93,4.44-2.93,7.07s1.06,5.21,2.93,7.07c1.86,1.86,4.43,2.93,7.07,2.93  c2.63,0,5.2-1.07,7.07-2.93c1.86-1.86,2.93-4.44,2.93-7.07s-1.07-5.21-2.93-7.07s-4.44-2.93-7.07-2.93  C362.707,206,360.127,207.07,358.277,208.93z" data-original="#000000" class="active-path" style="fill:#000000" data-old_color="#000000"/></g> </svg>
