<?xml version="1.0"?>
<svg xmlns="http://www.w3.org/2000/svg" xmlns:xlink="http://www.w3.org/1999/xlink" version="1.1" id="Capa_1" x="0px" y="0px" width="512px" height="512px" viewBox="0 0 40 40" style="enable-background:new 0 0 40 40;" xml:space="preserve"><g><g>
	<path d="M20,0C8.973,0,0,8.973,0,20c0,11.027,8.973,20,20,20c11.029,0,20-8.973,20-20C40,8.973,31.029,0,20,0z M31.156,21.867   c0,1.271-1.027,2.299-2.297,2.299H11.141c-1.269,0-2.298-1.027-2.298-2.299v-3.736c0-1.268,1.029-2.297,2.298-2.297h17.718   c1.271,0,2.298,1.029,2.298,2.297L31.156,21.867L31.156,21.867z" data-original="#000000" class="active-path" data-old_color="#000000" fill="#FF4757"/>
</g></g> </svg>
